<svg xmlns="http://www.w3.org/2000/svg" viewBox="0 0 256 206">
  <path fill="#EA4335" d="M170.252 56.819l22.253-22.253 1.483-9.37C153.437-11.677 88.976-7.496 52.42 33.92 42.267 45.423 34.734 59.764 30.717 74.573l7.97-1.123 44.505-7.34 3.436-3.513c19.797-21.742 53.27-24.667 76.128-6.168l7.496.39z"/>
  <path fill="#4285F4" d="M224.205 73.918a100.249 100.249 0 00-30.217-48.722l-31.232 31.232a55.515 55.515 0 0120.379 44.037v5.544c15.351 0 27.797 12.445 27.797 27.796 0 15.352-12.446 27.485-27.797 27.485h-55.671l-5.466 5.934v33.34l5.466 5.231h55.67c39.93.311 72.553-31.494 72.864-71.424a72.303 72.303 0 00-31.793-60.453z"/>
  <path fill="#34A853" d="M71.87 205.796h55.593V161.29H71.87a27.275 27.275 0 01-11.399-2.498l-7.886 2.42-22.409 22.253-1.952 7.574c12.567 9.489 27.9 14.825 43.646 14.757z"/>
  <path fill="#FBBC05" d="M71.87 61.425C31.94 61.664-.237 94.228.001 134.158a72.301 72.301 0 0028.222 56.88l32.247-32.246c-12.768-5.778-18.384-20.917-12.606-33.685a25.478 25.478 0 0112.606-12.606l32.247-32.246A72.224 72.224 0 0071.87 61.425z"/>
</svg>
